<svg xmlns="http://www.w3.org/2000/svg" version="1.1" xmlns:xlink="http://www.w3.org/1999/xlink" xmlns:svgjs="http://svgjs.dev/svgjs" width="1000" height="553" viewBox="0 0 1000 553"><g transform="matrix(1,0,0,1,-0.6060606060606233,0.47324154584947564)"><svg viewBox="0 0 396 219" data-background-color="#fafafa" preserveAspectRatio="xMidYMid meet" height="553" width="1000" xmlns="http://www.w3.org/2000/svg" xmlns:xlink="http://www.w3.org/1999/xlink"><g id="tight-bounds" transform="matrix(1,0,0,1,0.2400000000000091,-0.18741392141235735)"><svg viewBox="0 0 395.52 219.37482784282471" height="219.37482784282471" width="395.52"><g><svg viewBox="0 0 395.52 219.37482784282471" height="219.37482784282471" width="395.52"><g transform="matrix(1,0,0,1,0,135.58244448847415)"><svg viewBox="0 0 395.52 83.79238335435056" height="83.79238335435056" width="395.52"><g><svg viewBox="0 0 395.52 83.79238335435056" height="83.79238335435056" width="395.52"><g><svg viewBox="0 0 395.52 83.79238335435056" height="83.79238335435056" width="395.52"><g transform="matrix(1,0,0,1,0,0)"><svg width="395.52" viewBox="3.95 -38 237.88000000000002 50.4" height="83.79238335435056" data-palette-color="#ffffff"><path d="M9.35-32.55L9.35-18.05 15.8-18.05Q20-18.05 22.15-19.95 24.3-21.85 24.3-25.28 24.3-28.7 22.15-30.63 20-32.55 15.8-32.55L15.8-32.55 9.35-32.55ZM26.9 0.4L26.9 0.4Q25.5 0.4 24.55-0.33 23.6-1.05 22.15-3.1L22.15-3.1 13.95-14.75 9.4-14.75 9.4-3.1Q9.4-1.65 10.65-1.15L10.65-1.15Q9.6 0.45 7.95 0.45L7.95 0.45Q5.2 0.45 5.2-3.05L5.2-3.05 5.2-32.05Q5.2-33.5 3.95-34.05L3.95-34.05Q5.15-35.85 7.95-35.85L7.95-35.85 15.85-35.85Q21.7-35.85 25.23-33.05 28.75-30.25 28.75-25.65 28.75-21.05 26.13-18.38 23.5-15.7 18.95-15L18.95-15 27.2-4Q28.45-2.3 30.3-2.15L30.3-2.15Q29.15 0.4 26.9 0.4ZM38.45-14.65L47.8-15.4Q49.85-15.55 49.85-17.78 49.85-20 48.57-21.48 47.3-22.95 45-22.95 42.7-22.95 40.8-20.75 38.9-18.55 38.45-14.65L38.45-14.65ZM38.35-12.5Q38.35-7.6 40.47-5.25 42.6-2.9 46.55-2.9 50.5-2.9 53.1-5.5L53.1-5.5Q53.85-5.1 53.85-4.15L53.85-4.15Q53.85-2.5 51.45-1.03 49.05 0.45 45.75 0.45L45.75 0.45Q40.6 0.45 37.3-2.8 34-6.05 34-11.93 34-17.8 37.57-21.83 41.15-25.85 45.8-25.85L45.8-25.85Q49.5-25.85 51.82-23.3 54.15-20.75 54.15-17.5L54.15-17.5Q54.15-15.15 52.87-14.03 51.6-12.9 48.75-12.8L48.75-12.8 38.35-12.5ZM77.07-18.98Q76.25-18.3 75.1-18.3 73.95-18.3 73.15-18.9L73.15-18.9Q73.45-19.4 73.45-20.35 73.45-21.3 72.3-22.2 71.15-23.1 68.85-23.1 66.55-23.1 65.2-22.08 63.85-21.05 63.85-19.65 63.85-18.25 65.35-17.13 66.85-16 68.95-15.08 71.05-14.15 73.17-13.1 75.3-12.05 76.8-10.43 78.3-8.8 78.3-6.8L78.3-6.8Q78.3-3.85 75.5-1.7 72.7 0.45 68.4 0.45 64.1 0.45 61.4-1.2 58.7-2.85 58.7-5.45L58.7-5.45Q58.7-7 59.57-7.88 60.45-8.75 61.67-8.75 62.9-8.75 63.6-7.9L63.6-7.9Q62.9-6.95 62.9-5.6 62.9-4.25 64.27-3.28 65.65-2.3 68.27-2.3 70.9-2.3 72.47-3.43 74.05-4.55 74.05-6.18 74.05-7.8 72.57-9 71.1-10.2 69-11.08 66.9-11.95 64.77-12.93 62.65-13.9 61.17-15.4 59.7-16.9 59.7-18.8L59.7-18.8Q59.7-21.8 62.3-23.83 64.9-25.85 68.67-25.85 72.45-25.85 75.15-24.48 77.85-23.1 77.85-20.85L77.85-20.85Q77.9-19.65 77.07-18.98ZM100.77-20.38Q98.49-23 95.04-23 91.59-23 89.69-20.63 87.79-18.25 87.79-13.65L87.79-13.65Q87.79-7.7 90.12-5.03 92.44-2.35 95.89-2.35 99.34-2.35 101.19-4.75 103.04-7.15 103.04-11.75L103.04-11.75Q103.04-17.75 100.77-20.38ZM87.02-22.4Q90.49-25.85 95.44-25.85 100.39-25.85 103.87-22.38 107.34-18.9 107.34-12.68 107.34-6.45 103.87-3 100.39 0.45 95.44 0.45 90.49 0.45 87.02-3 83.54-6.45 83.54-12.7 83.54-18.95 87.02-22.4ZM135.04-22.35L135.04-22.35 135.04-3.1Q135.04-1.7 136.34-1.15L136.34-1.15Q135.29 0.45 133.69 0.45L133.69 0.45Q130.94 0.45 130.94-3.05L130.94-3.05 130.94-4.35Q128.14 0.45 122.79 0.45L122.79 0.45Q114.34 0.45 114.34-8.15L114.34-8.15 114.34-22.25Q114.34-23.7 113.09-24.25L113.09-24.25Q114.04-25.85 115.69-25.85L115.69-25.85Q118.49-25.85 118.49-22.35L118.49-22.35 118.49-8.4Q118.49-3.1 123.69-3.1L123.69-3.1Q126.09-3.1 128.02-4.55 129.94-6 130.94-8.6L130.94-8.6 130.94-22.25Q130.94-23.7 129.64-24.25L129.64-24.25Q130.79-25.85 132.29-25.85L132.29-25.85Q135.04-25.85 135.04-22.35ZM148.19-22.35L148.19-22.35 148.19-20.5Q150.29-25.85 155.14-25.85L155.14-25.85Q157.49-25.85 158.79-24.65 160.09-23.45 160.09-21.88 160.09-20.3 159.29-19.48 158.49-18.65 157.64-18.65 156.79-18.65 156.09-18.85L156.09-18.85Q156.19-19.35 156.19-20.15L156.19-20.15Q156.19-22.65 153.69-22.65L153.69-22.65Q152.04-22.65 150.44-21 148.84-19.35 148.19-15.95L148.19-15.95 148.19-3.1Q148.19-1.65 149.44-1.15L149.44-1.15Q148.39 0.45 146.84 0.45L146.84 0.45Q144.04 0.45 144.04-3.05L144.04-3.05 144.04-22.25Q144.04-23.7 142.79-24.25L142.79-24.25Q143.74-25.85 145.39-25.85L145.39-25.85Q148.19-25.85 148.19-22.35ZM182.69-21.05L182.69-21.05Q182.69-19.85 181.99-19.15 181.29-18.45 180.29-18.45 179.29-18.45 178.64-18.85L178.64-18.85Q178.79-19.4 178.79-19.95L178.79-19.95Q178.79-23 175.04-23L175.04-23Q171.99-23 169.59-20.2 167.19-17.4 167.19-12.63 167.19-7.85 169.41-5.45 171.64-3.05 174.89-3.05L174.89-3.05Q179.04-3.05 181.79-5.7L181.79-5.7Q182.44-5.15 182.44-4.25L182.44-4.25Q182.44-2.65 179.94-1.1 177.44 0.45 174.24 0.45L174.24 0.45Q169.59 0.45 166.29-2.75 162.99-5.95 162.99-11.88 162.99-17.8 166.71-21.83 170.44-25.85 175.79-25.85L175.79-25.85Q178.94-25.85 180.81-24.45 182.69-23.05 182.69-21.05ZM191.86-36.5Q193.13-36.5 193.96-35.77 194.78-35.05 194.78-33.77 194.78-32.5 193.71-31.48 192.63-30.45 191.28-30.45 189.93-30.45 189.08-31.25 188.23-32.05 188.23-33.35 188.23-34.65 189.41-35.58 190.58-36.5 191.86-36.5ZM193.78-22.35L193.78-22.35 193.78-3.1Q193.78-1.65 195.03-1.15L195.03-1.15Q193.98 0.45 192.43 0.45L192.43 0.45Q189.63 0.45 189.63-3.05L189.63-3.05 189.63-22.25Q189.63-23.7 188.38-24.25L188.38-24.25Q189.33-25.85 190.98-25.85L190.98-25.85Q193.78-25.85 193.78-22.35ZM204.03-23.25L204.43-23.25 204.43-30.05Q204.43-33.9 206.56-35.95 208.68-38 211.71-38 214.73-38 216.41-36.8 218.08-35.6 218.08-33.95L218.08-33.95Q218.08-32.95 217.28-32.6L217.28-32.6Q215.28-34.9 212.58-34.9L212.58-34.9Q210.78-34.9 209.71-33.75 208.63-32.6 208.63-30.25L208.63-30.25 208.63-23.25 216.48-23.25Q216.78-22.9 216.78-22.35L216.78-22.35Q216.78-20.05 209.33-20.05L209.33-20.05 208.63-20.05 208.63 6.35Q208.63 9.35 207.36 10.88 206.08 12.4 204.13 12.4L204.13 12.4Q201.43 12.4 200.33 9.85L200.33 9.85Q202.63 9.85 203.53 8.83 204.43 7.8 204.43 5.4L204.43 5.4 204.43-20.1Q200.03-20.35 200.03-22.05L200.03-22.05Q200.03-22.75 200.68-23.5L200.68-23.5Q201.83-23.25 204.03-23.25L204.03-23.25ZM230.08-2.05L237.13-21.5Q237.48-22.45 237.48-23.4 237.48-24.35 236.78-25.1L236.78-25.1Q237.88-25.85 239.23-25.85 240.58-25.85 241.43-24.5L241.43-24.5Q241.83-23.8 241.83-22.93 241.83-22.05 241.38-20.95L241.38-20.95 230.98 6.15Q228.53 12.4 224.28 12.4L224.28 12.4Q222.68 12.4 221.78 11.6 220.88 10.8 220.88 9.58 220.88 8.35 221.68 7.6L221.68 7.6Q222.58 8.55 223.88 8.55 225.18 8.55 225.95 7.85 226.73 7.15 227.38 5.35L227.38 5.35 229.18 0.45Q229.13 0.45 229.03 0.45L229.03 0.45Q228.03 0.45 227.18-0.23 226.33-0.9 225.93-2.15L225.93-2.15 219.03-22.15Q218.53-24 217.48-24.5L217.48-24.5Q218.33-25.85 220.13-25.85L220.13-25.85Q222.28-25.85 223.23-22.6L223.23-22.6 230.08-2.05Z" opacity="1" transform="matrix(1,0,0,1,0,0)" fill="#ffffff" class="undefined-text-0" data-fill-palette-color="primary" id="text-0"></path></svg></g></svg></g></svg></g></svg></g><g transform="matrix(1,0,0,1,139.85946310214376,0)"><svg viewBox="0 0 115.80107379571248 115.80107379571248" height="115.80107379571248" width="115.80107379571248"><g><svg></svg></g><g id="icon-0"><svg viewBox="0 0 115.80107379571248 115.80107379571248" height="115.80107379571248" width="115.80107379571248"><g><path transform="scale(1.15801,1.15801)" d="M30 100c-16.569 0-30-13.431-30-30v-40c0-16.569 13.431-30 30-30h40c16.569 0 30 13.431 30 30v40c0 16.569-13.431 30-30 30z" fill="#e77917" fill-rule="nonzero" stroke="none" stroke-width="1" stroke-linecap="butt" stroke-linejoin="miter" stroke-miterlimit="10" stroke-dasharray="" stroke-dashoffset="0" font-family="none" font-weight="none" font-size="none" text-anchor="none" style="mix-blend-mode: normal" data-fill-palette-color="accent"></path></g><g transform="matrix(1,0,0,1,20.013676097856248,45.55396670035224)"><svg viewBox="0 0 75.77372159999999 24.693140395007998" height="24.693140395007998" width="75.77372159999999"><g><svg xmlns="http://www.w3.org/2000/svg" xmlns:xlink="http://www.w3.org/1999/xlink" version="1.1" x="0" y="0" viewBox="0 0 100 32.588" enable-background="new 0 0 100 32.587" xml:space="preserve" width="75.77372159999999" height="24.693140395007998" class="icon-pn-0" data-fill-palette-color="quaternary" id="pn-0"><path d="M38.935 16.293c0 3.132 2.547 5.677 5.674 5.677h10.754c3.129 0 5.671-2.545 5.671-5.677 0-3.129-2.542-5.676-5.671-5.676H44.609C41.482 10.617 38.935 13.164 38.935 16.293z" fill="#fafafa" data-fill-palette-color="quaternary"></path><path d="M85.704 0H66.88c-4.958 0-9.333 2.542-11.896 6.391h2.04c3.239 0 6.109 1.569 7.918 3.982C65.53 10.08 66.182 9.9 66.88 9.9h18.824c2.425 0 4.4 1.975 4.4 4.405v3.978c0 2.428-1.976 4.403-4.4 4.403H66.88c-0.699 0-1.351-0.177-1.938-0.47-1.809 2.411-4.679 3.982-7.918 3.982h-2.04c2.562 3.846 6.938 6.388 11.896 6.388h18.824c7.883 0 14.296-6.416 14.296-14.304v-3.978C100 6.418 93.587 0 85.704 0z" fill="#fafafa" data-fill-palette-color="quaternary"></path><path d="M35.04 22.226c-0.583 0.286-1.229 0.46-1.921 0.46H14.298c-2.428 0-4.403-1.975-4.403-4.403v-3.978c0-2.43 1.975-4.405 4.403-4.405h18.821c0.692 0 1.338 0.177 1.921 0.46 1.808-2.408 4.676-3.97 7.908-3.97h2.07C42.453 2.542 38.077 0 33.119 0H14.298C6.416 0 0 6.418 0 14.306v3.978c0 7.888 6.416 14.304 14.298 14.304h18.821c4.958 0 9.333-2.542 11.898-6.388h-2.07C39.716 26.199 36.848 24.634 35.04 22.226z" fill="#fafafa" data-fill-palette-color="quaternary"></path></svg></g></svg></g></svg></g></svg></g><g></g></svg></g><defs></defs></svg><rect width="395.52" height="219.37482784282471" fill="none" stroke="none" visibility="hidden"></rect></g></svg></g></svg>